<?xml version="1.0" encoding="iso-8859-1"?>
<!-- Generator: Adobe Illustrator 19.0.0, SVG Export Plug-In . SVG Version: 6.00 Build 0)  -->
<svg version="1.1" id="Capa_1" xmlns="http://www.w3.org/2000/svg" xmlns:xlink="http://www.w3.org/1999/xlink" x="0px" y="0px"
	 viewBox="0 0 512 512" fill="#08C5D1" style="enable-background:new 0 0 512 512;" xml:space="preserve">
	 
<g>
	<g>
		<path d="M461.34,101.802l-9.873-11.943L196.831,314.691h45.326l54.074-47.745l43.953,47.729l110.01-94.349
			c17.279-14.333,27.962-34.529,30.084-56.885C482.404,141.038,475.678,119.147,461.34,101.802z"/>
	</g>
</g>
<g>
	<g>
		<path d="M30,0v346.553c20.495-19.719,48.328-31.862,78.948-31.862H124V107.972C124,52.957,83.031,7.331,30,0z"/>
	</g>
</g>
<g>
	<g>
		<path d="M166.757,380.904h304.576c-15.089-21.519-40.061-35.627-68.281-35.627H108.948c-45.966,0-83.362,37.396-83.362,83.362
			S62.982,512,108.948,512h294.105c26.53,0,50.187-12.473,65.465-31.846H166.757V380.904z M107.778,455.423
			c-14.769,0-26.784-12.016-26.784-26.785c0-14.769,12.015-26.784,26.784-26.784s26.785,12.015,26.785,26.784
			S122.547,455.423,107.778,455.423z"/>
	</g>
</g>
<g>
	<g>
		<path d="M484.496,410.903H196.757v39.251h286.827c1.837-6.868,2.83-14.077,2.83-21.516
			C486.414,422.552,485.741,416.622,484.496,410.903z"/>
	</g>
</g>
<g>
	<g>
		<polygon points="291.744,79.189 310.457,72.353 346.164,16.255 320.032,1.522 289.762,47.974 247.755,63.319 268.391,98.694 
			219.737,99.467 244.259,141.493 195.608,142.266 220.129,184.29 171.477,185.06 199.884,233.737 181.183,240.564 154,288.041 
			154,314.691 173.415,314.691 201.875,264.947 243.883,249.612 223.243,214.245 271.89,213.475 247.368,171.447 296.019,170.674 
			271.497,128.648 320.146,127.874 		"/>
	</g>
</g>
<g>
	<g>
		<polygon points="340.183,314.675 340.165,314.691 340.2,314.691 		"/>
	</g>
</g>
</svg>
