<svg width="285" height="67" viewBox="0 0 285 67" fill="none" xmlns="http://www.w3.org/2000/svg">
<path d="M61.1551 0.799988H4.33577C1.96627 0.799988 0.0454102 2.72085 0.0454102 5.09035V61.9096C0.0454102 64.2791 1.96627 66.2 4.33577 66.2H61.1551C63.5246 66.2 65.4454 64.2791 65.4454 61.9096V5.09035C65.4454 2.72085 63.5246 0.799988 61.1551 0.799988Z" fill="#D46F4D"/>
<path d="M56.7951 5.15997H8.69579C6.32629 5.15997 4.40543 7.08084 4.40543 9.45034V57.5496C4.40543 59.9191 6.32629 61.84 8.69579 61.84H56.7951C59.1646 61.84 61.0854 59.9191 61.0854 57.5496V9.45034C61.0854 7.08084 59.1646 5.15997 56.7951 5.15997Z" fill="#F8F1F1"/>
<path d="M44.7536 22.6151C44.7536 22.933 44.7384 23.251 44.7112 23.5659C44.7126 23.5779 44.7126 23.5901 44.7112 23.6022H44.696C43.4012 24.3279 41.9415 24.7085 40.4572 24.7073H40.3996C40.3996 24.7376 40.3996 24.7679 40.3996 24.7982C40.3971 26.614 40.9601 28.3855 42.0104 29.8667C41.7591 30.1482 41.4957 30.4177 41.2171 30.6751C40.6304 31.2106 39.9879 31.6816 39.3005 32.08C38.5618 32.5063 37.7751 32.8437 36.957 33.0852C36.8208 33.1276 36.6815 33.1639 36.5422 33.2002C35.1126 33.5634 33.6243 33.6332 32.167 33.4054C30.7096 33.1776 29.3136 32.657 28.0629 31.875C26.8123 31.0929 25.7331 30.0656 24.8903 28.8551C24.0476 27.6445 23.4588 26.2758 23.1595 24.8315C23.0828 24.4573 23.0262 24.0793 22.9899 23.6991C22.9535 23.3409 22.9353 22.9812 22.9354 22.6212C22.9322 19.9069 23.9419 17.2891 25.7669 15.2798C27.5919 13.2706 30.1008 12.0146 32.8029 11.7575C33.1459 11.7205 33.4905 11.7013 33.8354 11.7C35.2694 11.698 36.6896 11.979 38.0148 12.5268C39.34 13.0746 40.5441 13.8786 41.558 14.8925C42.572 15.9065 43.3759 17.1105 43.9237 18.4357C44.4716 19.7609 44.7525 21.1812 44.7505 22.6151H44.7536Z" fill="#08C5D1"/>
<path d="M36.0033 22.6121C37.1989 22.6121 38.1681 21.6429 38.1681 20.4472C38.1681 19.2516 37.1989 18.2824 36.0033 18.2824C34.8077 18.2824 33.8384 19.2516 33.8384 20.4472C33.8384 21.6429 34.8077 22.6121 36.0033 22.6121Z" fill="#F8F1F1"/>
<path d="M23.1928 46.1107C23.0959 46.9766 23.0242 47.8597 22.9778 48.76C22.9495 49.4867 22.9354 50.2133 22.9354 50.94V55.3C20.5278 55.2984 18.1547 54.7268 16.0104 53.6319C13.8661 52.5371 12.0115 50.9501 10.5983 49.0009C9.18508 47.0516 8.25345 44.7955 7.87963 42.417C7.5058 40.0386 7.7004 37.6055 8.4475 35.3167C8.85858 34.0572 9.56125 32.9127 10.4983 31.9761C11.4354 31.0396 12.5803 30.3376 13.84 29.9272C15.3688 29.4281 16.9672 29.1746 18.5754 29.1763C19.0629 29.1763 19.5443 29.1975 20.0197 29.2429C20.3577 29.2733 20.684 29.3821 20.9726 29.5607C21.2613 29.7393 21.5043 29.9827 21.6824 30.2716C21.8605 30.5605 21.9688 30.887 21.9987 31.2251C22.0286 31.5632 21.9792 31.9036 21.8545 32.2193C20.9583 34.4742 20.6133 36.9104 20.8482 39.3255C21.083 41.7405 21.891 44.0647 23.2049 46.1046L23.1928 46.1107Z" fill="#FFBF66"/>
<path d="M40.3693 33.5C40.0235 33.7645 39.6615 34.0072 39.2854 34.2266C38.546 34.6517 37.7595 34.9891 36.9419 35.2318C36.8056 35.2712 36.6664 35.3106 36.5271 35.3439C33.7591 36.0485 30.8254 35.6432 28.3521 34.2145C27.9774 33.9966 27.6165 33.7559 27.2712 33.4939C27.5104 33.1336 27.7587 32.7945 28.013 32.4736C28.125 32.3343 28.237 32.195 28.3521 32.0618C30.826 33.4884 33.7585 33.8946 36.5271 33.1942C36.6664 33.1578 36.8056 33.1215 36.9419 33.0791C37.76 32.8377 38.5466 32.5002 39.2854 32.0739C39.6763 32.526 40.0384 33.0023 40.3693 33.5Z" fill="#F8F1F1"/>
<path d="M44.7354 50.94C44.7354 51.5455 44.7203 52.1329 44.696 52.7203C44.696 53.0594 44.6658 53.3986 44.6446 53.7346C44.5112 54.186 44.2354 54.5821 43.8583 54.8637C43.4811 55.1453 43.023 55.2973 42.5524 55.297H22.9354V50.94C22.9354 50.2032 22.9536 49.4766 22.9899 48.76C23.0363 47.8597 23.108 46.9766 23.2049 46.1107C23.7862 40.9877 25.2668 36.5459 27.2984 33.4939C27.6437 33.7559 28.0047 33.9966 28.3793 34.2145C30.8526 35.6432 33.7864 36.0485 36.5543 35.3439C36.6936 35.3106 36.8329 35.2712 36.9691 35.2319C37.7774 34.9871 38.5546 34.6498 39.2854 34.2267C39.6602 34.0101 40.0212 33.7704 40.3663 33.5091C40.4753 33.6726 40.5843 33.8421 40.6903 34.0117C41.3715 35.1382 41.952 36.3227 42.4252 37.5512C43.1656 39.487 43.7182 41.4895 44.0753 43.531C44.3854 45.2583 44.5826 47.004 44.6658 48.757C44.693 49.2838 44.7112 49.8197 44.7203 50.3556C44.7354 50.5524 44.7354 50.7583 44.7354 50.94Z" fill="#08C5D1"/>
<path d="M57.8064 24.78C57.8056 26.458 57.3212 28.1002 56.4109 29.5098C55.5007 30.9195 54.2033 32.0368 52.6743 32.7279C50.9822 33.4911 49.091 33.695 47.2751 33.3101C45.4593 32.9251 43.8135 31.9713 42.5766 30.5873C42.3748 30.3577 42.1858 30.1171 42.0104 29.8667C40.9458 28.3867 40.3738 26.6092 40.3754 24.786C40.3754 24.7558 40.3754 24.7255 40.3754 24.6952H40.433C41.9173 24.6964 43.377 24.3158 44.6718 23.5901L44.7021 23.6082C45.7921 24.2401 47.0059 24.6286 48.2602 24.7473C49.5145 24.8659 50.7796 24.7118 51.9688 24.2955C52.7998 24.0054 53.5811 23.5887 54.285 23.0602L54.3335 23.0269C54.7095 22.7468 55.1666 22.5969 55.6354 22.6C56.212 22.6024 56.7642 22.8331 57.1711 23.2417C57.5779 23.6503 57.8064 24.2034 57.8064 24.78Z" fill="#FFBF66"/>
<path d="M36.3394 21.2042C37.0384 21.2042 37.605 20.6375 37.605 19.9386C37.605 19.2396 37.0384 18.673 36.3394 18.673C35.6404 18.673 35.0738 19.2396 35.0738 19.9386C35.0738 20.6375 35.6404 21.2042 36.3394 21.2042Z" fill="#F8F1F1"/>
<path d="M279.918 0.799988H171.951C169.492 0.799988 167.5 2.7927 167.5 5.25083V61.7492C167.5 64.2073 169.492 66.2 171.951 66.2H279.918C282.376 66.2 284.369 64.2073 284.369 61.7492V5.25083C284.369 2.7927 282.376 0.799988 279.918 0.799988Z" fill="#08C5D1"/>
<path d="M85.7497 2.71051C87.4866 2.66285 89.2125 3.001 90.803 3.70059C92.1436 4.31225 93.2714 5.30943 94.0428 6.56487C94.8385 7.94304 95.2338 9.51592 95.1842 11.1065C95.1817 12.176 95.0163 13.2388 94.6937 14.2585C94.3721 15.2899 93.8436 16.2449 93.1405 17.0652C92.3751 17.9408 91.4219 18.6322 90.3519 19.0878C89.023 19.6335 87.5944 19.8945 86.1584 19.8538H82.1557V29.7758H78.5224V2.71051H85.7497ZM86.1251 16.2992C87.0378 16.3304 87.946 16.1577 88.7835 15.7935C89.4345 15.4942 90.0006 15.0374 90.4306 14.4643C90.8084 13.9535 91.099 13.3837 91.2905 12.7779C91.4577 12.258 91.5465 11.7161 91.5539 11.1701C91.5494 10.5921 91.4607 10.0179 91.2905 9.46548C91.113 8.87427 90.8139 8.32666 90.4125 7.85773C89.9688 7.34292 89.4194 6.92982 88.8017 6.64662C88.0286 6.31184 87.1912 6.15161 86.3492 6.17731H82.1557V16.2871L86.1251 16.2992Z" fill="#1D1D1B"/>
<path d="M99.9015 0.799988H103.42V29.7758H99.9015V0.799988Z" fill="#D46F4D"/>
<path d="M115.888 30.1482C114.519 30.1641 113.167 29.8428 111.952 29.2126C110.764 28.5879 109.782 27.6332 109.124 26.4634C108.424 25.2523 108.075 23.7727 108.077 22.0247C108.032 20.4582 108.406 18.9081 109.16 17.5345C109.849 16.3216 110.86 15.3237 112.082 14.6521C113.309 13.9766 114.688 13.6283 116.088 13.6408C117.388 13.5999 118.672 13.9455 119.776 14.6339C120.71 15.2168 121.487 16.0193 122.041 16.9713L121.814 17.5345L122.153 14.2766H125.371V29.7758H121.889V25.7307L122.301 26.639C122.106 26.9874 121.867 27.309 121.589 27.5958C121.186 28.0307 120.741 28.4252 120.26 28.7736C118.999 29.7019 117.466 30.1883 115.9 30.1573L115.888 30.1482ZM116.824 27.2657C117.636 27.2791 118.441 27.1137 119.182 26.7813C119.867 26.4678 120.465 25.9918 120.923 25.3946C121.393 24.7757 121.719 24.06 121.877 23.2994V20.2716C121.688 19.5431 121.329 18.8697 120.83 18.3066C120.33 17.7477 119.718 17.3008 119.034 16.9956C118.313 16.6814 117.534 16.5225 116.748 16.5293C115.848 16.5172 114.962 16.7472 114.182 17.1952C113.401 17.6432 112.756 18.2926 112.312 19.0756C111.837 19.9334 111.599 20.9021 111.622 21.8824C111.613 22.8374 111.857 23.7777 112.331 24.6074C112.787 25.4117 113.446 26.0828 114.241 26.5542C115.02 27.022 115.912 27.268 116.821 27.2657H116.824Z" fill="#1D1D1B"/>
<path d="M132.844 7.46109H136.398V14.3493H140.637V17.0743H136.398V29.7758H132.844V17.0834H130.037V14.3584H132.844V7.46109Z" fill="#1D1D1B"/>
<path d="M149.99 29.8879L142.502 14.2766H146.438L152.691 28.1287L149.99 29.8879ZM146.133 37.2242L156.351 14.2766H159.573L149.581 37.2242H146.133Z" fill="#1D1D1B"/>
<path d="M85.7497 31.6833C87.4868 31.6366 89.2127 31.9758 90.803 32.6764C92.1436 33.2881 93.2714 34.2853 94.0428 35.5407C94.8385 36.9189 95.2338 38.4917 95.1842 40.0824C95.1815 41.1518 95.0161 42.2146 94.6937 43.2343C94.3721 44.2657 93.8436 45.2207 93.1405 46.041C92.3751 46.9166 91.4219 47.608 90.3519 48.0636C89.023 48.6093 87.5944 48.8703 86.1584 48.8296H82.1557V58.7516H78.5224V31.6833H85.7497ZM86.1251 45.272C87.0376 45.3042 87.9458 45.1325 88.7835 44.7694C89.4339 44.469 89.9997 44.0124 90.4306 43.4402C90.808 42.9291 91.0985 42.3593 91.2905 41.7537C91.4577 41.2338 91.5465 40.692 91.5539 40.1459C91.5497 39.5679 91.4609 38.9937 91.2905 38.4413C91.1124 37.8494 90.8134 37.301 90.4125 36.8305C89.9681 36.3165 89.4189 35.9035 88.8017 35.6194C88.0286 35.2846 87.1912 35.1244 86.3492 35.1501H82.1557V45.2568L86.1251 45.272Z" fill="#1D1D1B"/>
<path d="M99.9015 29.7758H103.42V58.7516H99.9015V29.7758Z" fill="#D46F4D"/>
<path d="M115.888 59.124C114.514 59.1415 113.157 58.8202 111.937 58.1885C110.75 57.5624 109.769 56.6067 109.112 55.4362C108.412 54.2251 108.062 52.7465 108.064 51.0005C108.021 49.4374 108.394 47.8908 109.145 46.5194C109.834 45.3072 110.846 44.3095 112.067 43.637C113.294 42.9635 114.673 42.6164 116.073 42.6287C117.373 42.5882 118.656 42.9327 119.761 43.6188C120.695 44.2028 121.473 45.0062 122.025 45.9593L121.798 46.5194L122.138 43.2646H125.356V58.7516H121.874V54.6944L122.286 55.6027C122.091 55.9501 121.852 56.2707 121.574 56.5565C121.171 56.9926 120.726 57.388 120.245 57.7373C118.982 58.6622 117.451 59.1482 115.885 59.121L115.888 59.124ZM116.824 56.2416C117.636 56.2552 118.442 56.0887 119.182 55.7541C119.867 55.4417 120.465 54.9667 120.923 54.3704C121.392 53.7512 121.718 53.0356 121.877 52.2752V49.2444C121.689 48.5157 121.329 47.8422 120.83 47.2794C120.331 46.7179 119.718 46.2707 119.031 45.9684C118.312 45.6525 117.534 45.4936 116.748 45.5021C115.848 45.4885 114.962 45.7174 114.181 46.165C113.401 46.6125 112.755 47.2621 112.312 48.0454C111.836 48.9039 111.597 49.8737 111.619 50.8552C111.61 51.8105 111.856 52.751 112.331 53.5802C112.786 54.3851 113.445 55.0564 114.241 55.5271C115.019 55.997 115.912 56.2442 116.821 56.2416H116.824Z" fill="#1D1D1B"/>
<path d="M136.55 58.8637L129.062 43.2525H132.998L139.244 57.1167L136.55 58.8637ZM132.692 66.2L142.914 43.2525H146.133L136.141 66.2H132.692Z" fill="#1D1D1B"/>
<path d="M188.873 20.9226C187.879 20.3883 186.839 19.9435 185.766 19.5934C184.754 19.245 183.693 19.0609 182.623 19.0484C181.277 19.0484 180.216 19.3512 179.441 19.9567C179.063 20.2446 178.76 20.6197 178.558 21.0498C178.356 21.48 178.262 21.9526 178.282 22.4274C178.279 22.7917 178.348 23.153 178.486 23.4903C178.624 23.8276 178.827 24.1342 179.084 24.3924C179.684 25.001 180.388 25.4964 181.164 25.8548C182.012 26.2585 182.91 26.6511 183.859 27.0326C184.688 27.3366 185.497 27.6925 186.281 28.0984C187.071 28.5099 187.806 29.0185 188.47 29.6123C189.162 30.2247 189.708 30.984 190.069 31.8347C190.481 32.8766 190.678 33.9908 190.65 35.1108C190.668 36.4892 190.298 37.8449 189.581 39.0226C188.813 40.2316 187.724 41.2034 186.435 41.8294C184.91 42.5749 183.227 42.9406 181.53 42.8952C180.404 42.8976 179.28 42.7726 178.182 42.5227C177.123 42.2813 176.089 41.9428 175.093 41.5115C174.141 41.1002 173.236 40.5854 172.396 39.9764L174.342 36.6065C174.987 37.0844 175.676 37.4981 176.401 37.8418C177.164 38.2163 177.96 38.5203 178.778 38.7501C179.54 38.9672 180.327 39.0802 181.119 39.0862C181.903 39.0807 182.681 38.9478 183.423 38.6926C184.167 38.4583 184.833 38.0248 185.348 37.4391C185.876 36.7851 186.144 35.9591 186.099 35.1198C186.119 34.4048 185.879 33.7068 185.424 33.1548C184.932 32.5813 184.343 32.0995 183.683 31.7317C182.934 31.3017 182.151 30.9322 181.343 30.6266C180.519 30.3016 179.658 29.9393 178.76 29.5396C177.874 29.1493 177.038 28.6532 176.271 28.0621C175.458 27.4555 174.806 26.659 174.372 25.7421C173.938 24.8253 173.736 23.8161 173.782 22.8028C173.749 21.4302 174.099 20.0754 174.794 18.8909C175.493 17.7561 176.499 16.8411 177.694 16.2507C179.027 15.585 180.492 15.227 181.982 15.2031C183.648 15.1654 185.31 15.3996 186.902 15.8965C188.181 16.3195 189.406 16.8906 190.553 17.5981L188.873 20.9226Z" fill="#F8F1F1"/>
<path d="M197.033 19.7993H201.226V26.7632H205.344V30.018H201.226V42.5833H197.033V30.018H194.308V26.7601H197.033V19.7993Z" fill="#F8F1F1"/>
<path d="M214.518 43.2706C213.209 43.313 211.936 42.8351 210.979 41.9414C210.514 41.5 210.143 40.9689 209.889 40.3804C209.636 39.7919 209.503 39.158 209.501 38.517V26.7602H213.685V36.9819C213.671 37.6897 213.895 38.3817 214.321 38.947C214.725 39.4334 215.361 39.6767 216.229 39.6767C217.027 39.686 217.802 39.4149 218.421 38.9106C219.097 38.3439 219.618 37.6146 219.935 36.7912C220.322 35.8294 220.513 34.8001 220.498 33.7634V26.7602H224.691V42.5833H220.919L220.583 39.1044L220.695 39.6282C220.368 40.3525 219.896 41.0018 219.308 41.5357C218.699 42.0926 217.987 42.5255 217.213 42.8104C216.35 43.1247 215.437 43.2807 214.518 43.2706Z" fill="#F8F1F1"/>
<path d="M236.978 43.0072C235.578 43.0267 234.2 42.6645 232.991 41.9596C231.793 41.2492 230.825 40.2098 230.202 38.9651C229.5 37.5561 229.153 35.9971 229.191 34.4235C229.147 32.8402 229.522 31.2735 230.278 29.8818C230.966 28.6545 232.001 27.658 233.254 27.0175C234.568 26.3577 236.022 26.0243 237.493 26.0456C238.623 26.0421 239.743 26.2645 240.787 26.6996C241.778 27.0923 242.644 27.745 243.294 28.5889L243.221 30.012V13.3986H247.385V42.5833H243.191V39.0408L243.603 40.0521C242.785 40.9177 241.823 41.6348 240.76 42.1716C239.584 42.749 238.287 43.0356 236.978 43.0072ZM238.325 39.4132C239.074 39.4267 239.817 39.294 240.515 39.0227C241.145 38.7651 241.708 38.3675 242.162 37.86C242.633 37.3365 242.984 36.7165 243.191 36.0433V32.7128C243.001 32.0578 242.662 31.4557 242.201 30.9536C241.723 30.4442 241.142 30.0426 240.496 29.7758C239.81 29.486 239.071 29.3397 238.325 29.3459C237.464 29.3359 236.615 29.562 235.873 29.9999C235.14 30.433 234.529 31.0444 234.096 31.7772C233.636 32.5591 233.402 33.4531 233.42 34.3599C233.409 35.2669 233.642 36.1602 234.096 36.9456C234.52 37.6953 235.133 38.3214 235.873 38.7623C236.616 39.199 237.464 39.4242 238.325 39.4132Z" fill="#F8F1F1"/>
<path d="M253.001 21.0346C252.998 20.733 253.064 20.4347 253.193 20.1624C253.323 19.89 253.513 19.6509 253.749 19.4632C254.201 19.055 254.787 18.8276 255.396 18.8244C256 18.8269 256.581 19.0547 257.025 19.4632C257.259 19.6593 257.447 19.9057 257.573 20.184C257.699 20.4623 257.761 20.7654 257.755 21.071C257.759 21.3709 257.695 21.6678 257.569 21.9399C257.443 22.2119 257.257 22.452 257.025 22.6424C256.581 23.0509 256 23.2787 255.396 23.2812C254.787 23.278 254.201 23.0506 253.749 22.6424C253.51 22.4491 253.318 22.2038 253.189 21.9251C253.059 21.6465 252.995 21.3419 253.001 21.0346ZM253.189 26.7602H257.379V42.5833H253.189V26.7602Z" fill="#F8F1F1"/>
<path d="M261.797 34.5113C261.773 32.9983 262.168 31.5082 262.938 30.2058C263.704 28.9324 264.796 27.8871 266.102 27.178C267.527 26.4114 269.126 26.0256 270.744 26.0577C272.344 26.0207 273.925 26.4072 275.328 27.178C276.602 27.8909 277.657 28.9378 278.38 30.2058C279.112 31.5073 279.487 32.9789 279.467 34.4719C279.491 35.9961 279.116 37.5002 278.38 38.8349C277.663 40.1135 276.607 41.1688 275.328 41.8839C273.889 42.6659 272.269 43.0534 270.632 43.0072C269.057 43.0349 267.499 42.6817 266.09 41.9778C264.782 41.3201 263.69 40.3007 262.944 39.0408C262.153 37.6649 261.756 36.0978 261.797 34.5113ZM266.036 34.5476C266.022 35.4336 266.231 36.3088 266.641 37.094C267.022 37.8218 267.583 38.44 268.27 38.8894C268.965 39.3395 269.779 39.5715 270.608 39.5555C271.464 39.5767 272.308 39.3416 273.03 38.8803C273.717 38.4309 274.278 37.8128 274.659 37.0849C275.053 36.294 275.258 35.4223 275.258 34.5385C275.258 33.6547 275.053 32.7831 274.659 31.9921C274.278 31.2643 273.717 30.6461 273.03 30.1967C272.319 29.7555 271.499 29.5217 270.662 29.5217C269.825 29.5217 269.005 29.7555 268.294 30.1967C267.594 30.646 267.026 31.2728 266.647 32.0133C266.234 32.7938 266.021 33.6645 266.027 34.5476H266.036Z" fill="#F8F1F1"/>
<path d="M254.954 50.0831V53.6014H197.005V50.0831H254.954Z" fill="#D46F4D"/>
</svg>
