<svg width="87" height="119" viewBox="0 0 87 119" fill="none" xmlns="http://www.w3.org/2000/svg">
<path d="M84.1955 0.279999H2.8045C1.78279 0.279999 0.954529 1.10826 0.954529 2.12997V83.5209C0.954529 84.5426 1.78279 85.3709 2.8045 85.3709H84.1955C85.2172 85.3709 86.0454 84.5426 86.0454 83.5209V2.12997C86.0454 1.10826 85.2172 0.279999 84.1955 0.279999Z" fill="#D46F4D"/>
<path d="M78.5228 5.95263H8.47717C7.45546 5.95263 6.6272 6.78089 6.6272 7.8026V77.8483C6.6272 78.87 7.45546 79.6982 8.47717 79.6982H78.5228C79.5445 79.6982 80.3728 78.87 80.3728 77.8483V7.8026C80.3728 6.78089 79.5445 5.95263 78.5228 5.95263Z" fill="#F8F1F1"/>
<path d="M43.6423 42.8241H43.3577C43.4517 42.828 43.5483 42.828 43.6423 42.8241Z" fill="black"/>
<path d="M59.1223 28.6615C59.1223 29.0784 59.1044 29.4909 59.0687 29.8991C59.0707 29.9156 59.0707 29.9323 59.0687 29.9487L59.0465 29.937L59.0296 29.9252C57.3385 30.8706 55.4327 31.3652 53.4953 31.3613C53.4705 31.3626 53.4457 31.3626 53.4209 31.3613C53.4209 31.3992 53.4209 31.4397 53.4209 31.4802C53.421 32.3827 53.5284 33.282 53.7408 34.1592C54.0804 35.5729 54.6909 36.9075 55.5385 38.0889C55.2121 38.4562 54.8683 38.8043 54.5071 39.1333C53.7443 39.8308 52.9082 40.4436 52.0135 40.9611C51.0518 41.5155 50.0275 41.9538 48.9624 42.2667C48.7862 42.3202 48.606 42.3711 48.4258 42.4142C44.8314 43.3299 41.0215 42.8087 37.8051 40.9611C35.6377 39.6992 33.8396 37.8904 32.5908 35.7154C31.8469 34.418 31.3145 33.0104 31.0136 31.5454C30.9124 31.0582 30.8383 30.5656 30.7917 30.0702C30.7444 29.6038 30.7209 29.1354 30.7212 28.6667C30.7217 25.1367 32.0369 21.7334 34.4103 19.1204C36.7836 16.5074 40.0451 14.8719 43.5587 14.5327C44.0078 14.4884 44.4622 14.4662 44.9217 14.4662C46.7867 14.4643 48.6337 14.8301 50.3571 15.5428C52.0805 16.2554 53.6464 17.3009 54.9654 18.6193C56.2843 19.9378 57.3304 21.5034 58.0437 23.2265C58.7569 24.9497 59.1235 26.7965 59.1223 28.6615Z" fill="#08C5D1"/>
<path d="M47.7404 28.6615C49.2964 28.6615 50.5578 27.4001 50.5578 25.8441C50.5578 24.2881 49.2964 23.0267 47.7404 23.0267C46.1844 23.0267 44.923 24.2881 44.923 25.8441C44.923 27.4001 46.1844 28.6615 47.7404 28.6615Z" fill="#F8F1F1"/>
<path d="M31.0698 59.2389C30.9392 60.363 30.8491 61.5145 30.793 62.6842C30.7443 63.6182 30.7203 64.5634 30.7212 65.5199V71.1939C27.5893 71.1911 24.5024 70.4472 21.7132 69.0227C18.9239 67.5983 16.5113 65.534 14.6728 62.9984C12.8344 60.4629 11.6221 57.5282 11.1352 54.4343C10.6484 51.3405 10.9007 48.1753 11.8716 45.1976C12.4058 43.5589 13.3195 42.0696 14.5382 40.8508C15.757 39.6321 17.2463 38.7184 18.885 38.1842C20.8754 37.5347 22.9562 37.2051 25.0499 37.2076C25.6826 37.2076 26.3084 37.2368 26.9273 37.2951C27.367 37.3344 27.7915 37.4758 28.1671 37.708C28.5426 37.9402 28.8588 38.2567 29.0905 38.6326C29.3222 39.0084 29.4631 39.4331 29.5018 39.8729C29.5406 40.3127 29.4762 40.7555 29.3138 41.1661C28.1483 44.1011 27.6997 47.2718 28.0051 50.4149C28.3105 53.5581 29.3611 56.5831 31.0698 59.2389Z" fill="#FFBF66"/>
<path d="M53.4222 42.8385C52.9725 43.1772 52.5025 43.488 52.0148 43.7693C51.0531 44.3238 50.0289 44.7621 48.9637 45.0749C48.7875 45.1297 48.6073 45.1793 48.4272 45.2237C44.8304 46.1345 41.0202 45.6067 37.8065 43.7524C37.3193 43.469 36.8498 43.1564 36.4004 42.8163C36.7098 42.3476 37.0323 41.9024 37.3626 41.4885C37.5088 41.3045 37.6563 41.1269 37.8065 40.9533C41.0206 42.8066 44.8305 43.3339 48.4272 42.4233C48.6073 42.3802 48.7875 42.3293 48.9637 42.2758C50.0289 41.9629 51.0531 41.5247 52.0148 40.9702C52.5225 41.563 52.9926 42.1869 53.4222 42.8385Z" fill="#F8F1F1"/>
<path d="M59.087 65.516C59.087 66.2993 59.0709 67.0718 59.0387 67.8334C59.023 68.2759 58.9982 68.7159 58.9708 69.152C58.7977 69.7397 58.439 70.2555 57.9483 70.6224C57.4576 70.9893 56.8614 71.1875 56.2487 71.1873H31.0058C30.9118 71.1873 30.8152 71.1873 30.7212 71.1873V65.516C30.7212 64.5586 30.7451 63.6134 30.793 62.6803C30.8491 61.5053 30.9431 60.359 31.0698 59.235C31.8257 52.5662 33.7527 46.7891 36.399 42.8189C36.8485 43.159 37.318 43.4716 37.8051 43.755C41.0189 45.6093 44.829 46.1371 48.4258 45.2264C48.606 45.182 48.7862 45.1324 48.9624 45.0775C50.0275 44.7647 51.0517 44.3264 52.0135 43.772C52.5017 43.4899 52.9721 43.1781 53.4222 42.8385C53.5641 43.0509 53.7042 43.2685 53.8426 43.4913C54.7308 44.9556 55.4858 46.4967 56.0986 48.096C57.0643 50.616 57.7856 53.223 58.2527 55.881C58.6553 58.128 58.9118 60.3988 59.0204 62.679C59.057 63.3657 59.08 64.0594 59.0896 64.7601C59.0844 65.012 59.087 65.264 59.087 65.516Z" fill="#08C5D1"/>
<path d="M76.1049 31.4802C76.1046 33.6633 75.4745 35.8 74.2903 37.634C73.106 39.468 71.4179 40.9215 69.4283 41.8202C67.2276 42.8139 64.7672 43.0796 62.405 42.5785C60.0429 42.0774 57.9022 40.8357 56.2944 39.0341C56.0253 38.7344 55.7734 38.4197 55.5398 38.0915C54.1548 36.1655 53.4112 33.8524 53.4144 31.4802C53.4144 31.4397 53.4144 31.3992 53.4144 31.3614C53.4392 31.3626 53.464 31.3626 53.4888 31.3614C55.4262 31.3652 57.332 30.8706 59.023 29.9252L59.0622 29.9487C60.9817 31.0645 63.1867 31.5918 65.4033 31.4651C67.6199 31.3383 69.7505 30.5632 71.5303 29.2359C71.5499 29.2229 71.572 29.2059 71.5916 29.1902C72.0148 28.8814 72.5151 28.6958 73.0373 28.6537C73.5594 28.6116 74.083 28.7148 74.5502 28.9518C75.0173 29.1888 75.4098 29.5505 75.6842 29.9967C75.9586 30.4429 76.1042 30.9563 76.1049 31.4802Z" fill="#FFBF66"/>
<path d="M48.1752 26.8259C49.0837 26.8259 49.8202 26.0894 49.8202 25.1809C49.8202 24.2723 49.0837 23.5359 48.1752 23.5359C47.2667 23.5359 46.5302 24.2723 46.5302 25.1809C46.5302 26.0894 47.2667 26.8259 48.1752 26.8259Z" fill="#F8F1F1"/>
<path d="M84.0545 91.7315H39.6643C38.6044 91.7315 37.7451 92.5908 37.7451 93.6507V116.801C37.7451 117.861 38.6044 118.72 39.6643 118.72H84.0545C85.1144 118.72 85.9736 117.861 85.9736 116.801V93.6507C85.9736 92.5908 85.1144 91.7315 84.0545 91.7315Z" fill="#08C5D1"/>
<path d="M4.00954 92.5188C4.72762 92.4989 5.44115 92.6389 6.09843 92.9288C6.65152 93.1805 7.11665 93.592 7.43401 94.1103C7.7618 94.6776 7.92501 95.325 7.90531 95.9798C7.90556 96.4227 7.83775 96.8631 7.70426 97.2854C7.57163 97.7107 7.35399 98.1047 7.06454 98.4434C6.74902 98.8053 6.35523 99.0906 5.91304 99.2777C5.36498 99.5033 4.77565 99.6114 4.18318 99.5949H2.52512V103.689H1.02765V92.5188H4.00954ZM4.16359 98.1327C4.54013 98.1454 4.91477 98.0741 5.26026 97.9238C5.52933 97.8009 5.76321 97.6123 5.94045 97.3755C6.09716 97.1652 6.21722 96.9299 6.29557 96.6796C6.36414 96.4651 6.40066 96.2416 6.40393 96.0164C6.40183 95.7778 6.36534 95.5408 6.29557 95.3127C6.22229 95.0683 6.09866 94.8419 5.93262 94.6482C5.749 94.438 5.52238 94.2697 5.26809 94.1547C4.94927 94.0162 4.6037 93.9502 4.25629 93.9614H2.52512V98.1392L4.16359 98.1327Z" fill="#1D1D1B"/>
<path d="M9.84796 91.7315H11.301V103.689H9.84796V91.7315Z" fill="#D46F4D"/>
<path d="M16.4449 103.843C15.8775 103.849 15.3174 103.714 14.8143 103.452C14.3243 103.193 13.9194 102.799 13.6485 102.316C13.3617 101.743 13.2137 101.112 13.2164 100.472C13.2191 99.8316 13.3725 99.2012 13.6641 98.6314C13.9477 98.1309 14.365 97.7191 14.8691 97.4421C15.3752 97.1637 15.9444 97.0202 16.522 97.0256C17.0583 97.0105 17.5871 97.1545 18.0416 97.4394C18.4278 97.6799 18.7488 98.0117 18.9764 98.4056L18.8837 98.6366L19.0234 97.2932H20.3525V103.69H18.9164V102.021L19.0861 102.391C19.0056 102.534 18.9068 102.666 18.7923 102.783C18.6264 102.963 18.4427 103.127 18.244 103.27C18.0043 103.444 17.7404 103.582 17.4607 103.68C17.1341 103.793 16.7904 103.848 16.4449 103.843ZM16.8366 102.654C17.1717 102.659 17.5038 102.591 17.8093 102.453C18.0917 102.324 18.3382 102.127 18.5273 101.881C18.7209 101.626 18.8547 101.33 18.919 101.017V99.7646C18.841 99.464 18.6929 99.1862 18.4868 98.9539C18.2814 98.7225 18.0285 98.5381 17.7453 98.4134C17.4484 98.2827 17.127 98.2168 16.8027 98.2202C16.4324 98.2147 16.0675 98.3087 15.7459 98.4924C15.4244 98.6761 15.1581 98.9428 14.9749 99.2646C14.7782 99.6188 14.6795 100.019 14.689 100.424C14.6846 100.819 14.7861 101.209 14.9827 101.552C15.1694 101.883 15.4394 102.16 15.7661 102.355C16.0872 102.55 16.4556 102.653 16.8314 102.654H16.8366Z" fill="#1D1D1B"/>
<path d="M23.4428 94.481H24.9102V97.3232H26.6583V98.4512H24.9102V103.689H23.4428V98.4512H22.2847V97.3232H23.4428V94.481Z" fill="#1D1D1B"/>
<path d="M30.5175 103.735L27.4286 97.2932H29.0501L31.6299 103.009L30.5175 103.735ZM28.9274 106.761L33.1443 97.2919H34.4734L30.3478 106.761H28.9274Z" fill="#1D1D1B"/>
<path d="M4.00954 104.476C4.72762 104.456 5.44115 104.596 6.09843 104.886C6.65179 105.138 7.11703 105.549 7.43401 106.068C7.7602 106.635 7.92204 107.282 7.9014 107.936C7.90177 108.379 7.83396 108.819 7.70035 109.242C7.56805 109.668 7.35038 110.062 7.06062 110.401C6.7444 110.762 6.3508 111.047 5.90912 111.235C5.36106 111.461 4.77173 111.569 4.17926 111.553H2.52512V115.645H1.02765V104.476H4.00954ZM4.16359 110.09C4.54003 110.103 4.91466 110.032 5.26026 109.883C5.52881 109.759 5.7625 109.571 5.94046 109.334C6.09682 109.124 6.21685 108.889 6.29557 108.638C6.36414 108.424 6.40065 108.2 6.40393 107.974C6.40191 107.736 6.36541 107.499 6.29557 107.272C6.2223 107.027 6.09866 106.801 5.93262 106.607C5.74894 106.397 5.52236 106.228 5.2681 106.112C4.94892 105.975 4.60354 105.91 4.25629 105.92H2.52512V110.09H4.16359Z" fill="#1D1D1B"/>
<path d="M9.84796 103.689H11.2997V115.645H9.84796V103.689Z" fill="#D46F4D"/>
<path d="M16.4449 115.801C15.8775 115.806 15.3174 115.672 14.8143 115.409C14.3243 115.151 13.9194 114.756 13.6485 114.273C13.3617 113.701 13.2137 113.069 13.2164 112.429C13.2191 111.789 13.3725 111.159 13.6641 110.589C13.9473 110.088 14.3647 109.676 14.8691 109.4C15.3751 109.121 15.9443 108.977 16.522 108.982C17.0584 108.967 17.5872 109.112 18.0416 109.397C18.4277 109.637 18.7487 109.968 18.9764 110.362L18.8837 110.594L19.0234 109.249H20.3525V115.647H18.9164V113.977L19.0861 114.348C19.0051 114.49 18.9064 114.622 18.7923 114.739C18.626 114.919 18.4424 115.082 18.244 115.226C18.0041 115.4 17.7402 115.537 17.4607 115.635C17.1343 115.749 16.7906 115.805 16.4449 115.801ZM16.8366 114.61C17.1719 114.615 17.5044 114.547 17.8106 114.41C18.0927 114.281 18.3392 114.085 18.5286 113.839C18.7222 113.583 18.856 113.287 18.9203 112.973V111.722C18.842 111.421 18.694 111.143 18.4881 110.91C18.282 110.68 18.0293 110.495 17.7466 110.37C17.4495 110.24 17.1283 110.174 16.804 110.176C16.433 110.171 16.0675 110.266 15.7459 110.451C15.4243 110.636 15.1584 110.904 14.9762 111.227C14.7794 111.582 14.6807 111.982 14.6903 112.387C14.6862 112.782 14.7871 113.17 14.9827 113.513C15.1691 113.845 15.4392 114.123 15.7661 114.318C16.0873 114.511 16.4553 114.612 16.8301 114.61H16.8366Z" fill="#1D1D1B"/>
<path d="M24.9716 115.692L21.8826 109.249H23.5041L26.0839 114.967L24.9716 115.692ZM23.3814 118.72L27.5983 109.249H28.9274L24.8018 118.72H23.3814Z" fill="#1D1D1B"/>
<path d="M46.5655 100.035C46.1549 99.8151 45.7259 99.6316 45.2834 99.4866C44.8655 99.3434 44.4274 99.2676 43.9857 99.262C43.4295 99.262 42.9917 99.3856 42.6723 99.6328C42.5163 99.7517 42.3913 99.9064 42.3079 100.084C42.2245 100.261 42.1851 100.456 42.1932 100.652C42.1922 100.803 42.2211 100.952 42.2782 101.092C42.3354 101.231 42.4196 101.358 42.5261 101.464C42.7738 101.713 43.0638 101.915 43.3825 102.061C43.7307 102.235 44.1014 102.397 44.4948 102.548C44.8384 102.673 45.1737 102.82 45.4988 102.988C45.8249 103.156 46.1288 103.363 46.4036 103.606C46.6874 103.862 46.9104 104.179 47.0563 104.533C47.2239 104.965 47.302 105.427 47.2861 105.89C47.2934 106.459 47.141 107.018 46.8462 107.504C46.5311 108.002 46.0842 108.404 45.555 108.663C44.9258 108.971 44.2315 109.122 43.5313 109.103C43.0662 109.104 42.6024 109.052 42.1488 108.949C41.7121 108.849 41.2855 108.71 40.8745 108.531C40.4821 108.361 40.1091 108.149 39.7622 107.898L40.5664 106.508C40.8325 106.704 41.1166 106.875 41.415 107.018C41.7308 107.171 42.0593 107.295 42.3968 107.389C42.7107 107.479 43.0352 107.525 43.3616 107.527C43.6851 107.525 44.0061 107.471 44.3121 107.366C44.6201 107.267 44.8955 107.087 45.1085 106.843C45.325 106.573 45.4347 106.232 45.4166 105.886C45.4252 105.591 45.3263 105.303 45.1385 105.076C44.9356 104.839 44.6925 104.64 44.4204 104.488C44.1111 104.311 43.788 104.158 43.4543 104.032C43.1149 103.898 42.7598 103.749 42.389 103.585C42.023 103.423 41.678 103.218 41.3615 102.974C41.0261 102.723 40.7571 102.395 40.578 102.017C40.3989 101.638 40.3151 101.222 40.334 100.804C40.3226 100.237 40.4695 99.6773 40.7583 99.1889C41.047 98.7205 41.462 98.3431 41.9555 98.1C42.5053 97.8252 43.1099 97.6775 43.7246 97.6679C44.4123 97.6525 45.098 97.7491 45.7547 97.9538C46.2826 98.1318 46.7878 98.3711 47.26 98.6667L46.5655 100.035Z" fill="#F8F1F1"/>
<path d="M49.9324 99.5714H51.6623V102.444H53.3595V103.788H51.6623V108.981H49.9324V103.79H48.8044V102.445H49.9324V99.5714Z" fill="#F8F1F1"/>
<path d="M57.147 109.257C56.607 109.275 56.082 109.078 55.6874 108.709C55.4952 108.527 55.342 108.308 55.237 108.065C55.132 107.822 55.0773 107.56 55.0764 107.295V102.445H56.8075V106.662C56.8012 106.954 56.8931 107.24 57.0686 107.474C57.2331 107.673 57.4943 107.773 57.852 107.774C58.1813 107.778 58.5016 107.667 58.7567 107.458C59.0351 107.224 59.2502 106.924 59.3821 106.585C59.5413 106.187 59.6198 105.762 59.6132 105.334V102.445H61.3443V108.973H59.7777L59.6393 107.537L59.685 107.752C59.5509 108.05 59.3566 108.316 59.1144 108.535C58.8625 108.764 58.5685 108.941 58.2489 109.058C57.8965 109.19 57.5233 109.257 57.147 109.257Z" fill="#F8F1F1"/>
<path d="M66.4164 109.149C65.8388 109.158 65.2697 109.009 64.7701 108.719C64.2765 108.426 63.8774 107.998 63.6199 107.484C63.3316 106.904 63.1882 106.263 63.2022 105.615C63.1837 104.961 63.3382 104.313 63.65 103.737C63.9346 103.232 64.3619 102.821 64.8785 102.556C65.422 102.283 66.0235 102.145 66.6319 102.154C67.0984 102.152 67.5605 102.244 67.9909 102.424C68.4003 102.587 68.7581 102.858 69.0262 103.207L68.9962 103.795V96.9303H70.7104V108.981H68.9805V107.512L69.1503 107.93C68.8121 108.286 68.4145 108.581 67.9753 108.802C67.491 109.041 66.9564 109.16 66.4164 109.149ZM66.9726 107.667C67.2815 107.673 67.5886 107.617 67.876 107.504C68.1357 107.398 68.3678 107.234 68.5549 107.025C68.749 106.809 68.8941 106.554 68.9805 106.277V104.901C68.9022 104.63 68.7618 104.382 68.5706 104.175C68.3738 103.965 68.1343 103.799 67.8682 103.689C67.585 103.569 67.2802 103.508 66.9726 103.51C66.6168 103.506 66.2668 103.6 65.9608 103.782C65.6578 103.96 65.4053 104.213 65.2271 104.516C65.0368 104.838 64.9401 105.207 64.9477 105.581C64.943 105.955 65.0395 106.324 65.2271 106.648C65.4023 106.957 65.6552 107.214 65.9608 107.396C66.2666 107.578 66.6167 107.672 66.9726 107.667Z" fill="#F8F1F1"/>
<path d="M73.0278 100.082C73.026 99.9566 73.0529 99.8327 73.1066 99.7195C73.1602 99.6063 73.2391 99.507 73.3372 99.4291C73.5239 99.262 73.7655 99.1691 74.0161 99.168C74.2649 99.1682 74.5047 99.2613 74.6884 99.4291C74.7866 99.511 74.8648 99.6143 74.9171 99.7311C74.9693 99.8478 74.9943 99.9749 74.99 100.103C74.9923 100.227 74.9663 100.351 74.9141 100.464C74.8618 100.577 74.7847 100.677 74.6884 100.756C74.5049 100.924 74.265 101.017 74.0161 101.017C73.7653 101.016 73.5236 100.923 73.3372 100.756C73.237 100.675 73.1569 100.572 73.1032 100.455C73.0496 100.338 73.0237 100.21 73.0278 100.082ZM73.1048 102.445H74.8333V108.973H73.1048V102.445Z" fill="#F8F1F1"/>
<path d="M76.6611 105.642C76.6511 105.023 76.8115 104.413 77.1249 103.879C77.4383 103.345 77.8926 102.908 78.438 102.615C79.026 102.298 79.6856 102.139 80.3532 102.151C81.014 102.136 81.667 102.296 82.2463 102.615C82.7725 102.909 83.2078 103.342 83.5048 103.867C83.8072 104.404 83.9621 105.011 83.9539 105.628C83.9641 106.256 83.8092 106.877 83.5048 107.427C83.21 107.955 82.7743 108.391 82.2463 108.685C81.6521 109.008 80.9833 109.168 80.3075 109.149C79.655 109.16 79.0095 109.012 78.4262 108.719C77.8869 108.447 77.4366 108.026 77.1285 107.507C76.8057 106.939 76.6441 106.295 76.6611 105.642ZM78.408 105.658C78.4018 106.023 78.4866 106.384 78.6547 106.709C78.8117 107.01 79.0432 107.265 79.3271 107.45C79.6139 107.637 79.9498 107.734 80.2919 107.729C80.6442 107.737 80.9909 107.64 81.288 107.45C81.5719 107.265 81.8034 107.01 81.9604 106.709C82.1226 106.383 82.2071 106.023 82.2071 105.659C82.2071 105.294 82.1226 104.935 81.9604 104.608C81.8034 104.308 81.5719 104.052 81.288 103.867C80.9941 103.684 80.6549 103.587 80.3088 103.587C79.9628 103.587 79.6236 103.684 79.3297 103.867C79.0408 104.052 78.8061 104.311 78.6495 104.616C78.4834 104.938 78.3991 105.296 78.404 105.658H78.408Z" fill="#F8F1F1"/>
<path d="M73.8346 112.069V113.521H49.9207V112.069H73.8346Z" fill="#D46F4D"/>
</svg>
