<svg width="86" height="119" viewBox="0 0 86 119" fill="none" xmlns="http://www.w3.org/2000/svg">
<path d="M83.6098 0.280029H2.21887C1.19716 0.280029 0.368896 1.10829 0.368896 2.13V83.5209C0.368896 84.5426 1.19716 85.3709 2.21887 85.3709H83.6098C84.6315 85.3709 85.4598 84.5426 85.4598 83.5209V2.13C85.4598 1.10829 84.6315 0.280029 83.6098 0.280029Z" fill="#1D1D1B"/>
<path d="M77.9372 5.95265H7.89149C6.86978 5.95265 6.04152 6.78091 6.04152 7.80262V77.8483C6.04152 78.87 6.86978 79.6983 7.89149 79.6983H77.9372C78.9589 79.6983 79.7871 78.87 79.7871 77.8483V7.80262C79.7871 6.78091 78.9589 5.95265 77.9372 5.95265Z" fill="white"/>
<path d="M43.0566 42.8242H42.772C42.866 42.8281 42.9626 42.8281 43.0566 42.8242Z" fill="black"/>
<path d="M58.5366 28.6615C58.5366 29.0784 58.5188 29.4909 58.4831 29.8991C58.4851 29.9156 58.4851 29.9323 58.4831 29.9488L58.4609 29.937L58.4439 29.9253C56.7529 30.8706 54.8471 31.3652 52.9097 31.3614C52.8849 31.3627 52.86 31.3627 52.8353 31.3614C52.8353 31.3992 52.8353 31.4397 52.8353 31.4802C52.8354 32.3827 52.9428 33.282 53.1551 34.1592C53.4948 35.5729 54.1053 36.9075 54.9529 38.0889C54.6265 38.4562 54.2827 38.8043 53.9215 39.1333C53.1587 39.8308 52.3226 40.4436 51.4279 40.9611C50.4661 41.5155 49.4419 41.9538 48.3768 42.2667C48.2005 42.3202 48.0204 42.3711 47.8402 42.4142C44.2457 43.3299 40.4359 42.8087 37.2195 40.9611C35.0521 39.6993 33.254 37.8904 32.0051 35.7154C31.2612 34.418 30.7288 33.0104 30.428 31.5455C30.3268 31.0582 30.2527 30.5657 30.2061 30.0702C30.1588 29.6038 30.1353 29.1354 30.1356 28.6667C30.1361 25.1367 31.4513 21.7335 33.8246 19.1204C36.198 16.5074 39.4594 14.8719 42.9731 14.5328C43.4222 14.4884 43.8765 14.4662 44.3361 14.4662C46.201 14.4643 48.048 14.8301 49.7714 15.5428C51.4948 16.2554 53.0608 17.3009 54.3798 18.6194C55.6987 19.9378 56.7447 21.5034 57.458 23.2266C58.1713 24.9497 58.5378 26.7966 58.5366 28.6615Z" fill="#1D1D1B"/>
<path d="M47.1548 28.6615C48.7108 28.6615 49.9722 27.4001 49.9722 25.8441C49.9722 24.2881 48.7108 23.0267 47.1548 23.0267C45.5988 23.0267 44.3374 24.2881 44.3374 25.8441C44.3374 27.4001 45.5988 28.6615 47.1548 28.6615Z" fill="white"/>
<path d="M30.4841 59.2389C30.3536 60.363 30.2635 61.5145 30.2074 62.6843C30.1586 63.6182 30.1347 64.5634 30.1356 65.5199V71.1939C27.0036 71.1912 23.9168 70.4472 21.1275 69.0228C18.3382 67.5984 15.9257 65.534 14.0872 62.9984C12.2487 60.4629 11.0365 57.5282 10.5496 54.4343C10.0627 51.3405 10.3151 48.1753 11.286 45.1977C11.8202 43.559 12.7338 42.0696 13.9526 40.8508C15.1713 39.6321 16.6607 38.7184 18.2994 38.1842C20.2898 37.5348 22.3706 37.2051 24.4642 37.2077C25.097 37.2077 25.7228 37.2368 26.3416 37.2951C26.7814 37.3344 27.2059 37.4758 27.5814 37.708C27.957 37.9402 28.2732 38.2568 28.5049 38.6326C28.7366 39.0084 28.8774 39.4331 28.9162 39.8729C28.9549 40.3127 28.8906 40.7555 28.7282 41.1661C27.5627 44.1011 27.1141 47.2718 27.4195 50.415C27.7248 53.5581 28.7755 56.5831 30.4841 59.2389Z" fill="#1D1D1B"/>
<path d="M30.4619 71.5111H30.1356C19.0227 71.5111 9.98301 62.4754 9.98301 51.3612C9.9807 49.2329 10.316 47.1177 10.9765 45.0945C11.5306 43.4094 12.4727 41.8779 13.727 40.6234C14.9812 39.369 16.5125 38.4266 18.1976 37.8722C20.221 37.2129 22.3361 36.878 24.4642 36.88C25.1 36.88 25.7424 36.91 26.3716 36.9687C26.862 37.0127 27.3353 37.1705 27.754 37.4296C28.1727 37.6887 28.5251 38.0418 28.7833 38.461C29.0415 38.8802 29.1984 39.3539 29.2414 39.8443C29.2844 40.3348 29.2124 40.8285 29.0311 41.2862C27.8856 44.1722 27.4448 47.2897 27.7452 50.3801C28.0456 53.4705 29.0785 56.4447 30.7583 59.0561L30.821 59.154L30.8079 59.2702C30.6774 60.4126 30.5873 61.5641 30.5338 62.6947C30.4854 63.6177 30.4619 64.5669 30.4619 65.5147V71.5111ZM24.4642 37.534C22.4051 37.5314 20.3586 37.8558 18.4012 38.4949C16.8135 39.0168 15.3705 39.9043 14.1885 41.086C13.0066 42.2677 12.1188 43.7105 11.5967 45.2982C10.9583 47.2558 10.6339 49.3021 10.6358 51.3612C10.6358 62.0067 19.2068 70.6834 29.8092 70.861V65.516C29.8092 64.5564 29.834 63.5968 29.881 62.6634C29.9345 61.5589 30.0233 60.4322 30.1421 59.3133C28.4328 56.6208 27.3859 53.5615 27.087 50.3863C26.7881 47.2111 27.2459 44.0102 28.4227 41.046C28.5684 40.6858 28.6273 40.2963 28.5944 39.9091C28.5615 39.5219 28.4378 39.1479 28.2334 38.8174C28.029 38.4809 27.7483 38.1971 27.414 37.9892C27.0797 37.7812 26.7012 37.6548 26.309 37.6202C25.7006 37.5667 25.0791 37.534 24.4642 37.534Z" fill="white"/>
<path d="M52.8366 42.8385C52.3868 43.1772 51.9168 43.4881 51.4292 43.7694C50.4674 44.3238 49.4432 44.7621 48.3781 45.0749C48.2018 45.1298 48.0217 45.1794 47.8415 45.2238C44.2447 46.1345 40.4345 45.6067 37.2208 43.7524C36.7337 43.469 36.2641 43.1564 35.8147 42.8163C36.1241 42.3476 36.4466 41.9024 36.7769 41.4886C36.9231 41.3045 37.0707 41.1269 37.2208 40.9533C40.4349 42.8066 44.2449 43.3339 47.8415 42.4233C48.0217 42.3803 48.2018 42.3293 48.3781 42.2758C49.4432 41.9629 50.4674 41.5247 51.4292 40.9702C51.9369 41.563 52.4069 42.187 52.8366 42.8385Z" fill="white"/>
<path d="M58.5014 65.516C58.5014 66.2993 58.4853 67.0718 58.4531 67.8334C58.4374 68.276 58.4126 68.7159 58.3852 69.152C58.2121 69.7397 57.8533 70.2555 57.3627 70.6224C56.872 70.9893 56.2758 71.1875 55.6631 71.1873H30.4202C30.3262 71.1873 30.2296 71.1873 30.1356 71.1873V65.516C30.1356 64.5586 30.1595 63.6134 30.2074 62.6803C30.2635 61.5053 30.3575 60.3591 30.4841 59.235C31.2401 52.5662 33.1671 46.7891 35.8134 42.8189C36.2628 43.159 36.7324 43.4716 37.2195 43.755C40.4332 45.6093 44.2434 46.1371 47.8402 45.2264C48.0204 45.182 48.2005 45.1324 48.3768 45.0775C49.4419 44.7647 50.4661 44.3264 51.4279 43.772C51.916 43.4899 52.3865 43.1781 52.8366 42.8385C52.9784 43.0509 53.1186 43.2685 53.2569 43.4913C54.1452 44.9556 54.9002 46.4967 55.5129 48.096C56.4786 50.616 57.2 53.223 57.6671 55.881C58.0697 58.128 58.3261 60.3988 58.4348 62.679C58.4713 63.3658 58.4944 64.0594 58.504 64.7601C58.4987 65.0121 58.5014 65.264 58.5014 65.516Z" fill="#1D1D1B"/>
<path d="M75.5193 31.4802C75.5189 33.6633 74.8889 35.8 73.7046 37.634C72.5204 39.468 70.8323 40.9215 68.8427 41.8202C66.6419 42.8139 64.1815 43.0796 61.8194 42.5785C59.4572 42.0774 57.3166 40.8358 55.7088 39.0341C55.4397 38.7344 55.1878 38.4197 54.9542 38.0915C53.5692 36.1655 52.8256 33.8524 52.8287 31.4802C52.8287 31.4397 52.8287 31.3992 52.8287 31.3614C52.8535 31.3627 52.8784 31.3627 52.9031 31.3614C54.8405 31.3652 56.7463 30.8707 58.4374 29.9253L58.4766 29.9488C60.3961 31.0645 62.6011 31.5918 64.8177 31.4651C67.0343 31.3383 69.1648 30.5632 70.9446 29.2359C70.9642 29.2229 70.9864 29.2059 71.006 29.1902C71.4292 28.8815 71.9295 28.6958 72.4516 28.6537C72.9738 28.6116 73.4974 28.7148 73.9645 28.9518C74.4317 29.1889 74.8242 29.5505 75.0986 29.9967C75.373 30.4429 75.5186 30.9563 75.5193 31.4802Z" fill="#1D1D1B"/>
<path d="M64.1727 43.1505C62.64 43.1509 61.1222 42.8493 59.706 42.2629C58.2899 41.6766 57.0031 40.817 55.9193 39.7332C54.8354 38.6495 53.9757 37.3628 53.3892 35.9467C52.8027 34.5307 52.5009 33.0129 52.501 31.4802C52.501 31.4332 52.501 31.3875 52.501 31.3496L52.5193 31.0128L52.8548 31.0415H52.9005C54.7818 31.0422 56.6319 30.5608 58.2742 29.6433L58.4491 29.5467L58.6345 29.6681C60.4988 30.7525 62.6406 31.2653 64.7939 31.1428C66.9472 31.0202 69.017 30.2677 70.7462 28.9787C70.7647 28.9666 70.7825 28.9535 70.7997 28.9396L70.8115 28.9304C71.2833 28.5863 71.8411 28.3794 72.4233 28.3325C73.0054 28.2857 73.5892 28.4008 74.1099 28.6651C74.6307 28.9294 75.0682 29.3326 75.3741 29.8302C75.68 30.3277 75.8423 30.9001 75.8431 31.4841C75.8425 33.694 75.2148 35.8584 74.0329 37.7257C72.851 39.593 71.1635 41.0866 69.1665 42.033L68.9745 42.1218C67.466 42.8043 65.8285 43.1552 64.1727 43.1505ZM53.1551 31.6917C53.1926 33.9247 53.9124 36.0928 55.2179 37.9048C55.4453 38.2225 55.6898 38.5276 55.9503 38.8187C57.4978 40.5497 59.5519 41.7485 61.8202 42.2445C64.0885 42.7404 66.4554 42.5084 68.5842 41.5813L68.7147 41.5238C70.6463 40.6502 72.2852 39.2383 73.435 37.4572C74.5849 35.6762 75.197 33.6015 75.1981 31.4815C75.1973 31.0186 75.0686 30.5649 74.8263 30.1705C74.584 29.776 74.2375 29.4562 73.825 29.2462C73.4124 29.0362 72.9499 28.9443 72.4884 28.9805C72.0269 29.0167 71.5844 29.1796 71.2096 29.4513C71.1861 29.4696 71.16 29.4892 71.1365 29.5049C69.6065 30.6414 67.8215 31.3861 65.9374 31.674C64.0534 31.9618 62.1275 31.7841 60.3278 31.1564C59.6736 30.9278 59.041 30.6417 58.4374 30.3013C56.811 31.175 55.0009 31.6515 53.1551 31.6917Z" fill="white"/>
<path d="M47.5895 26.8259C48.498 26.8259 49.2345 26.0894 49.2345 25.1809C49.2345 24.2724 48.498 23.5359 47.5895 23.5359C46.681 23.5359 45.9445 24.2724 45.9445 25.1809C45.9445 26.0894 46.681 26.8259 47.5895 26.8259Z" fill="white"/>
<path d="M83.4688 91.7316H39.0786C38.0187 91.7316 37.1595 92.5908 37.1595 93.6507V116.801C37.1595 117.861 38.0187 118.72 39.0786 118.72H83.4688C84.5287 118.72 85.388 117.861 85.388 116.801V93.6507C85.388 92.5908 84.5287 91.7316 83.4688 91.7316Z" fill="#1D1D1B"/>
<path d="M3.4239 92.5188C4.14198 92.4989 4.8555 92.6389 5.51278 92.9288C6.06588 93.1806 6.53101 93.592 6.84837 94.1103C7.17616 94.6776 7.33936 95.325 7.31967 95.9799C7.31991 96.4228 7.2521 96.8631 7.11862 97.2854C6.98599 97.7108 6.76835 98.1047 6.4789 98.4434C6.16338 98.8053 5.76959 99.0906 5.3274 99.2777C4.77934 99.5034 4.19001 99.6114 3.59754 99.5949H1.93948V103.689H0.442009V92.5188H3.4239ZM3.57795 98.1327C3.95449 98.1454 4.32912 98.0741 4.67462 97.9238C4.94369 97.8009 5.17757 97.6123 5.35481 97.3755C5.51152 97.1652 5.63157 96.9299 5.70992 96.6796C5.7785 96.4651 5.81501 96.2416 5.81828 96.0164C5.81619 95.7779 5.77969 95.5409 5.70992 95.3127C5.63665 95.0683 5.51302 94.8419 5.34698 94.6482C5.16335 94.438 4.93674 94.2697 4.68245 94.1547C4.36362 94.0162 4.01805 93.9503 3.67065 93.9615H1.93948V98.1393L3.57795 98.1327Z" fill="#1D1D1B"/>
<path d="M9.26233 91.7316H10.7154V103.689H9.26233V91.7316Z" fill="#1D1D1B"/>
<path d="M15.8593 103.843C15.2918 103.849 14.7318 103.714 14.2287 103.452C13.7387 103.193 13.3338 102.799 13.0628 102.316C12.7761 101.743 12.6281 101.112 12.6308 100.472C12.6335 99.8317 12.7869 99.2012 13.0785 98.6314C13.3621 98.1309 13.7793 97.7191 14.2835 97.4421C14.7896 97.1637 15.3588 97.0202 15.9363 97.0256C16.4727 97.0105 17.0014 97.1545 17.456 97.4395C17.8421 97.68 18.1632 98.0117 18.3908 98.4056L18.2981 98.6367L18.4378 97.2932H19.7669V103.69H18.3307V102.021L18.5005 102.391C18.42 102.534 18.3212 102.666 18.2067 102.783C18.0408 102.963 17.8571 103.127 17.6584 103.27C17.4187 103.444 17.1548 103.582 16.875 103.68C16.5485 103.793 16.2048 103.848 15.8593 103.843ZM16.251 102.654C16.5861 102.659 16.9182 102.591 17.2236 102.453C17.5061 102.324 17.7526 102.127 17.9417 101.881C18.1352 101.626 18.2691 101.33 18.3334 101.017V99.7647C18.2554 99.4641 18.1073 99.1862 17.9012 98.9539C17.6958 98.7225 17.4429 98.5381 17.1597 98.4134C16.8628 98.2827 16.5414 98.2168 16.217 98.2202C15.8468 98.2147 15.4818 98.3087 15.1603 98.4924C14.8388 98.6762 14.5725 98.9428 14.3893 99.2646C14.1926 99.6188 14.0939 100.019 14.1034 100.424C14.099 100.819 14.2004 101.209 14.3971 101.552C14.5838 101.883 14.8538 102.16 15.1804 102.355C15.5015 102.55 15.87 102.653 16.2458 102.654H16.251Z" fill="#1D1D1B"/>
<path d="M22.8571 94.4811H24.3245V97.3233H26.0727V98.4513H24.3245V103.689H22.8571V98.4513H21.6991V97.3233H22.8571V94.4811Z" fill="#1D1D1B"/>
<path d="M29.9319 103.735L26.843 97.2932H28.4645L31.0442 103.009L29.9319 103.735ZM28.3417 106.761L32.5587 97.2919H33.8877L29.7622 106.761H28.3417Z" fill="#1D1D1B"/>
<path d="M3.4239 104.476C4.14198 104.456 4.85551 104.596 5.51279 104.886C6.06615 105.138 6.53139 105.549 6.84838 106.068C7.17456 106.635 7.3364 107.282 7.31576 107.936C7.31613 108.379 7.24832 108.819 7.11471 109.242C6.98241 109.668 6.76475 110.062 6.47499 110.401C6.15876 110.762 5.76516 111.047 5.32349 111.235C4.77543 111.461 4.18609 111.569 3.59362 111.553H1.93948V115.645H0.442009V104.476H3.4239ZM3.57796 110.09C3.95439 110.103 4.32903 110.033 4.67462 109.883C4.94317 109.759 5.17686 109.571 5.35482 109.334C5.51119 109.124 5.63121 108.889 5.70993 108.639C5.7785 108.424 5.81502 108.2 5.81829 107.974C5.81627 107.736 5.77977 107.499 5.70993 107.272C5.63666 107.027 5.51303 106.801 5.34699 106.607C5.1633 106.397 4.93672 106.228 4.68246 106.112C4.36329 105.975 4.0179 105.91 3.67065 105.92H1.93948V110.09H3.57796Z" fill="#1D1D1B"/>
<path d="M9.26233 103.689H10.7141V115.645H9.26233V103.689Z" fill="#1D1D1B"/>
<path d="M15.8593 115.801C15.2918 115.806 14.7318 115.672 14.2287 115.409C13.7387 115.151 13.3338 114.756 13.0628 114.273C12.7761 113.701 12.6281 113.069 12.6308 112.429C12.6335 111.789 12.7869 111.159 13.0785 110.589C13.3617 110.088 13.779 109.676 14.2835 109.4C14.7895 109.121 15.3587 108.977 15.9363 108.982C16.4728 108.967 17.0016 109.112 17.456 109.397C17.842 109.637 18.1631 109.968 18.3908 110.362L18.2981 110.594L18.4378 109.25H19.7669V115.647H18.3307V113.977L18.5005 114.348C18.4195 114.49 18.3208 114.622 18.2067 114.739C18.0404 114.919 17.8567 115.082 17.6584 115.226C17.4185 115.4 17.1546 115.537 16.875 115.635C16.5486 115.749 16.2049 115.805 15.8593 115.801ZM16.251 114.61C16.5863 114.615 16.9187 114.547 17.2249 114.41C17.5071 114.281 17.7535 114.085 17.943 113.839C18.1366 113.583 18.2704 113.287 18.3347 112.973V111.722C18.2564 111.421 18.1083 111.143 17.9025 110.91C17.6964 110.68 17.4436 110.495 17.161 110.37C16.8639 110.24 16.5427 110.174 16.2184 110.176C15.8474 110.171 15.4819 110.266 15.1603 110.451C14.8386 110.636 14.5728 110.904 14.3906 111.227C14.1938 111.582 14.0951 111.982 14.1047 112.387C14.1005 112.782 14.2015 113.17 14.3971 113.513C14.5834 113.845 14.8535 114.123 15.1804 114.318C15.5017 114.511 15.8697 114.612 16.2445 114.61H16.251Z" fill="#1D1D1B"/>
<path d="M24.3859 115.692L21.297 109.25H22.9184L25.4982 114.967L24.3859 115.692ZM22.7957 118.72L27.0127 109.25H28.3417L24.2162 118.72H22.7957Z" fill="#1D1D1B"/>
<path d="M45.9798 100.035C45.5692 99.8151 45.1402 99.6316 44.6977 99.4866C44.2798 99.3435 43.8417 99.2676 43.4 99.262C42.8438 99.262 42.406 99.3856 42.0866 99.6328C41.9306 99.7517 41.8056 99.9065 41.7222 100.084C41.6388 100.261 41.5995 100.456 41.6075 100.652C41.6065 100.803 41.6354 100.952 41.6925 101.092C41.7497 101.231 41.8339 101.358 41.9404 101.464C42.1881 101.713 42.4782 101.915 42.7968 102.061C43.145 102.235 43.5158 102.398 43.9092 102.548C44.2527 102.674 44.5881 102.82 44.9131 102.988C45.2392 103.156 45.5431 103.363 45.8179 103.606C46.1017 103.862 46.3247 104.179 46.4707 104.533C46.6382 104.965 46.7164 105.427 46.7004 105.89C46.7077 106.459 46.5553 107.018 46.2605 107.504C45.9454 108.002 45.4985 108.404 44.9693 108.663C44.3401 108.971 43.6458 109.122 42.9457 109.103C42.4805 109.104 42.0168 109.052 41.5631 108.949C41.1264 108.849 40.6999 108.71 40.2889 108.531C39.8964 108.361 39.5234 108.149 39.1765 107.898L39.9808 106.508C40.2468 106.704 40.531 106.875 40.8294 107.018C41.1451 107.171 41.4736 107.295 41.8111 107.389C42.125 107.479 42.4496 107.525 42.776 107.527C43.0994 107.525 43.4204 107.471 43.7264 107.366C44.0344 107.267 44.3098 107.087 44.5228 106.843C44.7394 106.573 44.849 106.232 44.8309 105.886C44.8395 105.591 44.7407 105.303 44.5528 105.076C44.3499 104.839 44.1068 104.64 43.8348 104.488C43.5254 104.311 43.2023 104.158 42.8686 104.032C42.5292 103.898 42.1741 103.749 41.8033 103.585C41.4374 103.423 41.0924 103.218 40.7758 102.974C40.4404 102.723 40.1714 102.395 39.9923 102.017C39.8132 101.638 39.7294 101.222 39.7484 100.804C39.7369 100.237 39.8838 99.6773 40.1727 99.1889C40.4613 98.7205 40.8763 98.3431 41.3699 98.1001C41.9197 97.8252 42.5243 97.6775 43.1389 97.6679C43.8266 97.6525 44.5123 97.7491 45.169 97.9538C45.6969 98.1318 46.2021 98.3711 46.6743 98.6667L45.9798 100.035Z" fill="white"/>
<path d="M49.3468 99.5714H51.0767V102.444H52.7739V103.788H51.0767V108.981H49.3468V103.79H48.2188V102.445H49.3468V99.5714Z" fill="white"/>
<path d="M56.5613 109.257C56.0213 109.275 55.4963 109.078 55.1017 108.709C54.9096 108.527 54.7564 108.308 54.6513 108.065C54.5463 107.822 54.4917 107.56 54.4907 107.295V102.445H56.2219V106.662C56.2155 106.954 56.3075 107.24 56.483 107.474C56.6475 107.673 56.9086 107.773 57.2663 107.774C57.5956 107.778 57.9159 107.667 58.1711 107.458C58.4495 107.224 58.6645 106.924 58.7964 106.585C58.9556 106.187 59.0341 105.762 59.0275 105.334V102.445H60.7587V108.973H59.192L59.0536 107.537L59.0993 107.752C58.9652 108.05 58.7709 108.316 58.5288 108.535C58.2768 108.764 57.9828 108.941 57.6632 109.058C57.3108 109.19 56.9376 109.257 56.5613 109.257Z" fill="white"/>
<path d="M65.8308 109.149C65.2532 109.158 64.6841 109.01 64.1845 108.719C63.6909 108.426 63.2917 107.998 63.0343 107.484C62.7459 106.904 62.6026 106.263 62.6165 105.615C62.5981 104.961 62.7525 104.313 63.0643 103.737C63.349 103.232 63.7763 102.821 64.2929 102.556C64.8364 102.283 65.4379 102.145 66.0462 102.154C66.5127 102.152 66.9748 102.244 67.4053 102.424C67.8147 102.587 68.1724 102.858 68.4406 103.207L68.4106 103.795V96.9303H70.1248V108.981H68.3949V107.512L68.5646 107.93C68.2265 108.286 67.8289 108.581 67.3896 108.802C66.9053 109.041 66.3707 109.16 65.8308 109.149ZM66.387 107.667C66.6959 107.673 67.0029 107.617 67.2904 107.504C67.55 107.398 67.7821 107.234 67.9693 107.025C68.1633 106.809 68.3085 106.554 68.3949 106.277V104.901C68.3166 104.63 68.1762 104.382 67.985 104.175C67.7881 103.965 67.5486 103.799 67.2826 103.689C66.9993 103.569 66.6946 103.508 66.387 103.51C66.0312 103.506 65.6812 103.6 65.3752 103.782C65.0722 103.96 64.8197 104.213 64.6414 104.516C64.4512 104.838 64.3544 105.207 64.362 105.581C64.3573 105.955 64.4539 106.324 64.6414 106.648C64.8166 106.957 65.0696 107.214 65.3752 107.396C65.6809 107.578 66.0311 107.672 66.387 107.667Z" fill="white"/>
<path d="M72.4421 100.082C72.4403 99.9566 72.4673 99.8327 72.5209 99.7195C72.5745 99.6063 72.6534 99.507 72.7515 99.4291C72.9383 99.262 73.1798 99.1691 73.4304 99.168C73.6792 99.1682 73.919 99.2613 74.1028 99.4291C74.201 99.511 74.2792 99.6143 74.3314 99.7311C74.3837 99.8478 74.4086 99.9749 74.4044 100.103C74.4066 100.227 74.3806 100.351 74.3284 100.464C74.2762 100.577 74.199 100.677 74.1028 100.756C73.9193 100.924 73.6793 101.017 73.4304 101.017C73.1797 101.016 72.9379 100.923 72.7515 100.756C72.6513 100.675 72.5713 100.572 72.5176 100.455C72.4639 100.338 72.4381 100.21 72.4421 100.082ZM72.5191 102.445H74.2477V108.973H72.5191V102.445Z" fill="white"/>
<path d="M76.0754 105.642C76.0654 105.023 76.2258 104.413 76.5392 103.879C76.8526 103.345 77.3069 102.908 77.8523 102.615C78.4403 102.298 79.0999 102.139 79.7676 102.151C80.4284 102.136 81.0814 102.296 81.6606 102.615C82.1868 102.909 82.6221 103.342 82.9192 103.867C83.2215 104.404 83.3764 105.012 83.3683 105.628C83.3784 106.257 83.2235 106.877 82.9192 107.427C82.6243 107.955 82.1886 108.391 81.6606 108.685C81.0664 109.008 80.3976 109.168 79.7219 109.149C79.0693 109.16 78.4239 109.012 77.8406 108.719C77.3012 108.447 76.8509 108.026 76.5428 107.507C76.22 106.939 76.0584 106.295 76.0754 105.642ZM77.8223 105.658C77.8161 106.023 77.9009 106.384 78.069 106.709C78.226 107.01 78.4575 107.265 78.7414 107.45C79.0282 107.637 79.3641 107.734 79.7062 107.729C80.0585 107.737 80.4052 107.64 80.7023 107.45C80.9862 107.265 81.2177 107.01 81.3747 106.709C81.537 106.383 81.6214 106.023 81.6214 105.659C81.6214 105.294 81.537 104.935 81.3747 104.608C81.2177 104.308 80.9862 104.052 80.7023 103.867C80.4084 103.684 80.0693 103.587 79.7232 103.587C79.3771 103.587 79.0379 103.684 78.744 103.867C78.4551 104.052 78.2204 104.311 78.0638 104.616C77.8977 104.938 77.8134 105.296 77.8184 105.658H77.8223Z" fill="white"/>
<path d="M73.2489 112.07V113.521H49.3351V112.07H73.2489Z" fill="white"/>
</svg>
